<?xml version="1.0" encoding="UTF-8" standalone="no"?>
<svg
   xmlns:dc="http://purl.org/dc/elements/1.1/"
   xmlns:cc="http://creativecommons.org/ns#"
   xmlns:rdf="http://www.w3.org/1999/02/22-rdf-syntax-ns#"
   xmlns:svg="http://www.w3.org/2000/svg"
   xmlns="http://www.w3.org/2000/svg"
   id="svg3833"
   version="1.1"
   viewBox="0 0 51.837966 134.79396"
   height="509.4574"
   width="195.92302">
  <defs
     id="defs3827" />
  <metadata
     id="metadata3830">
    <rdf:RDF>
      <cc:Work
         rdf:about="">
        <dc:format>image/svg+xml</dc:format>
        <dc:type
           rdf:resource="http://purl.org/dc/dcmitype/StillImage" />
        <dc:title></dc:title>
      </cc:Work>
    </rdf:RDF>
  </metadata>
  <g
     transform="translate(1.19457,35.736597)"
     id="layer1">
    <path
       id="path3777-3"
       d="M 5.94918,99.05721 V 62.81925 27.248347 L 4.625602,26.39901 C 1.944764,24.678719 -0.23026997,21.47249 -0.90217897,18.250473 -1.062993,17.479327 -1.19457,15.241492 -1.19457,13.277508 l 3.97801,0.0016 c 0.132901,4.059648 0.185976,4.871474 0.869157,6.184646 1.02608,1.972244 2.374847,3.366154 4.050294,4.185878 0.793009,0.387974 1.615784,0.953794 1.82843,1.257377 0.334565,0.477646 0.386609,5.462066 0.386609,37.017623 v 37.13271 z M 30.290847,99.02586 V 61.853296 c 0,-33.425905 0.03844,-36.777411 0.426164,-37.165134 0.234368,-0.234384 0.991103,-0.712444 1.681639,-1.062355 2.705417,-1.370939 3.302555,-2.370516 8.933391,-14.9534565 2.832735,-6.3301562 5.209249,-11.9260942 5.281163,-12.4354162 0.103611,-0.73383 0.0026,-1.045536 -0.489029,-1.501741 -0.340889,-0.316635 -0.934456,-0.653764 -1.31908,-0.749178 -1.334294,-0.331018 -2.064809,0.782166 -5.036503,7.674877 -1.505744,3.4924999 -2.870517,6.5772029 -3.032839,6.8548963 -0.236538,0.4047173 -0.832909,0.5694812 -3.005667,0.8304107 -3.563223,0.4279106 -5.812128,1.5032517 -7.068397,3.3798137 -0.468048,0.699183 -0.914532,1.680483 -0.992187,2.180667 -0.07763,0.500182 -0.20537,1.322311 -0.283845,1.826956 -0.264028,1.697881 -1.754346,2.461236 -2.989183,1.531106 -0.653495,-0.492212 -0.703818,-0.672232 -0.694187,-2.482159 0.0087,-1.624822 0.150759,-2.25139 0.848942,-3.743399 1.504315,-3.2146478 4.987157,-5.9511009 8.184594,-6.4305841 L 31.878347,5.4372663 V -9.6259687 -24.689204 l -0.64942,-0.649433 c -0.859208,-0.859192 -2.075286,-0.859192 -2.934467,0 l -0.649447,0.649433 v 10.295094 c 0,10.0146413 -0.01508,10.3140893 -0.548375,10.9922373 -0.687123,0.873532 -2.103358,0.955812 -2.891208,0.167973 -0.514932,-0.514932 -0.529167,-0.881943 -0.529167,-13.6434363 0,-9.462841 -0.0857,-13.27518 -0.307789,-13.692187 -0.73033,-1.371246 -2.125636,-1.624177 -3.315468,-0.601004 l -0.742368,0.638376 -0.06914,13.450686 c -0.06834,13.2979703 -0.07543,13.4559473 -0.624628,13.9137113 -0.305514,0.254662 -0.886301,0.463021 -1.290611,0.463021 -0.40431,0 -0.984356,-0.208359 -1.288971,-0.463021 -0.542766,-0.453763 -0.555254,-0.673764 -0.624628,-11.0033683 l -0.07078,-10.540344 -0.742368,-0.638302 c -1.183507,-1.017627 -2.580957,-0.828077 -3.236171,0.438957 -0.323453,0.625515 -0.387086,2.772889 -0.387086,13.064813 0,11.96348827 -0.01508,12.33142327 -0.529166,12.84543227 C 10.132348,1.3141793 9.5695,1.5269603 9.058034,1.5245493 7.079665,1.5152493 7.007513,1.1990193 7.007513,-7.4618647 v -7.4377563 l -0.649419,-0.649433 c -0.859208,-0.859192 -2.075286,-0.859192 -2.934468,0 l -0.649446,0.649433 v 28.188945 l -3.966157,-0.0061 c 0.0026,-8.030871 0.01429,-28.580829 0.62364903,-29.88944 1.118182,-2.4013 3.48495997,-3.75693 6.08978297,-3.488087 l 1.419939,0.14655 0.118401,-2.873531 c 0.107659,-2.613258 0.189177,-2.988029 0.899954,-4.137663 0.477573,-0.772472 1.285293,-1.575569 2.076714,-2.064879 1.152896,-0.712783 1.522704,-0.800743 3.366453,-0.800743 2.044568,0 2.071264,-0.0087 2.071264,-0.675656 0,-0.37161 0.305197,-1.288127 0.678233,-2.036702 2.127276,-4.268867 8.423513,-4.265483 10.527374,0.0057 0.374888,0.76108 0.745543,1.702591 0.823674,2.092246 0.137504,0.685908 0.18714,0.703807 1.558925,0.562226 2.444909,-0.252338 4.918075,1.038429 6.04991,3.157535 0.597932,1.11946 0.603514,1.227331 0.734801,14.203791 l 0.132291,13.07576827 1.412584,-3.28618397 c 0.776949,-1.807397 1.705108,-3.792884 2.062586,-4.412189 1.487276,-2.576539 5.284788,-3.5198823 8.069104,-2.004456 2.2157,1.205936 3.485859,3.850341 3.026198,6.300467 -0.206745,1.102116 -10.494962,24.2035697 -11.373009,25.5372527 -0.866272,1.315818 -2.602203,3.043121 -3.849846,3.83073 l -1.067408,0.673825 v 35.331696 c 0,30.491493 -0.05302,35.867829 -0.387086,36.513831 z"
       style="fill:#000000;stroke-width:0.26458332" />
  </g>
</svg>
