<?xml version="1.0" encoding="UTF-8" standalone="no"?>
<svg
   xmlns:dc="http://purl.org/dc/elements/1.1/"
   xmlns:cc="http://creativecommons.org/ns#"
   xmlns:rdf="http://www.w3.org/1999/02/22-rdf-syntax-ns#"
   xmlns:svg="http://www.w3.org/2000/svg"
   xmlns="http://www.w3.org/2000/svg"
   id="svg3833"
   version="1.1"
   viewBox="0 0 42.567246 116.37859"
   height="439.85602"
   width="160.88408">
  <defs
     id="defs3827" />
  <metadata
     id="metadata3830">
    <rdf:RDF>
      <cc:Work
         rdf:about="">
        <dc:format>image/svg+xml</dc:format>
        <dc:type
           rdf:resource="http://purl.org/dc/dcmitype/StillImage" />
        <dc:title></dc:title>
      </cc:Work>
    </rdf:RDF>
  </metadata>
  <g
     transform="translate(26.591336,50.507684)"
     id="layer1">
    <path
       id="path3777-6"
       d="m -19.44872,65.863381 -0.0127,-60.044821 -0.0127,-11.719838 -1.469046,-0.926042 c -2.541932,-1.602356 -4.777158,-4.998558 -5.379218,-8.173196 -0.358219,-1.888868 -0.358986,-25.495013 0,-26.784259 0.146447,-0.527172 0.743268,-1.500426 1.326304,-2.162784 1.375648,-1.562819 2.84308,-2.137211 5.093917,-1.993892 l 1.68529,0.107313 0.466222,-1.127184 c 0.516546,-1.248918 1.901852,-2.601018 3.236039,-3.158471 1.436662,-0.600276 3.790739,-0.466431 5.2268975,0.297183 l 1.243092,0.660958 1.24161,-0.660958 c 1.719845,-0.915551 3.942874,-0.913271 5.787496,0.0059 l 1.33828797,0.666896 1.16104483,-0.663708 c 0.8872538,-0.507187 1.5354565,-0.66309 2.7485711,-0.661085 1.9833431,0.0033 3.3910587,0.619345 4.6787329,2.047587 1.1358827,1.25985 1.5354567,2.481723 1.5374937,4.701561 l 0.0026,1.598769 1.175729,0.314457 c 1.417955,0.379248 2.881736,1.607211 3.668501,3.077535 0.5638,1.053621 0.581924,1.367319 0.659791,11.418422 0.08771,11.319102 -0.05289,12.858366 -1.43211,15.67734 -0.813091,1.661898 -3.369231,4.492328 -4.7082339,5.213421 l -0.9357254,0.503918 -0.073872,11.873788 -0.073872,59.9187 -3.8365642,-0.006 V 4.94127 c 0,-8.002219 0.09779,-12.779853 0.2681023,-13.098073 0.1474523,-0.275521 0.7983802,-0.735523 1.44653,-1.022228 1.7731581,-0.78435 3.6546892,-2.69194 4.5349582,-4.597752 l 0.761868,-1.649495 v -10.774237 -10.774238 l -0.602218,-0.602846 c -0.591608,-0.592238 -0.72427,-0.604271 -7.5406248,-0.683926 -7.5456777,-0.08817 -8.4293857,-0.01545 -9.2021277,0.757298 -0.663628,0.663639 -0.668179,2.117757 -0.0093,2.932494 0.497073,0.614513 0.600207,0.626763 6.37195997,0.756914 5.41721123,0.122156 5.89541913,0.171641 6.24162643,0.645883 0.5033434,0.689514 0.5406496,8.026553 0.044186,8.692337 -0.1819011,0.243941 -0.9078384,0.615717 -1.6132175,0.826172 -3.2981636,0.984025 -4.99236993,3.201453 -5.59882093,7.327929 -0.17473,1.188931 -0.940223,1.910455 -2.02686597,1.910455 -1.796759,0 -2.301373,-2.137463 -1.282965,-5.434647 0.910299,-2.947234 3.24252097,-5.591113 6.1562444,-6.978964 0.9395354,-0.447511 0.9921875,-0.538829 0.9921875,-1.720803 v -1.248211 l -4.69635293,-0.09185 c -4.52112097,-0.08842 -4.74323797,-0.118297 -5.95312497,-0.800822 l -1.256771,-0.70898 -1.238911,0.692444 c -1.7492145,0.977651 -3.9883295,0.970227 -5.7584185,-0.0191 l -1.27307,-0.711536 -0.834257,0.515599 c -1.228117,0.759015 -3.133196,1.119888 -4.404307,0.834289 l -1.072621,-0.241001 0.08091,7.58196 0.08088,7.581971 0.74049,1.507882 c 0.91014,1.853425 2.661523,3.622133 4.386765,4.430189 0.739405,0.346323 1.425469,0.885203 1.591839,1.250339 0.20021,0.439385 0.292365,4.562146 0.292365,13.076692 v 60.759973 z m -0.01905,-100.065288 c 0.998908,-0.516554 1.077251,-0.801454 1.077251,-3.916979 0,-2.380578 -0.063,-2.740334 -0.575284,-3.285651 -0.834654,-0.888458 -2.377202,-0.846408 -3.109674,0.08478 -0.47125,0.599101 -0.548376,1.067065 -0.548376,3.327643 0,2.554624 0.02223,2.652816 0.773404,3.403902 0.871934,0.87195 1.307121,0.942504 2.382679,0.38631 z m 8.881533,-0.419722 c 0.478737,-0.47807 0.538348,-0.944324 0.6152095,-4.811884 0.09562,-4.811141 -0.02223,-5.8278 -0.7613385,-6.566898 -0.663655,-0.663649 -2.117752,-0.668181 -2.932483,-0.0091 -0.611241,0.494438 -0.626401,0.613638 -0.706861,5.560523 l -0.08221,5.055254 0.82042,0.82043 c 0.692018,0.692016 0.953214,0.793872 1.668806,0.650754 0.46662,-0.09332 1.086909,-0.40789 1.378453,-0.69904 z m 8.8100175,-8.99837 c 0.104166,-1.968058 -0.562187,-2.89482 -2.081425,-2.89482 -1.610492,0 -2.097352,0.660077 -2.097907,2.844271 v 1.785938 l 2.05097,-0.132292 2.050997,-0.132292 0.07784,-1.470805 z m 8.2565333,0.05128 c 0,-2.013945 -0.6494727,-2.946099 -2.0526639,-2.946099 -1.563423,0 -2.1806694,0.799399 -2.1806694,2.824245 v 1.673672 h 2.1166666 2.1166667 z"
       style="fill:#000000;stroke-width:0.26458332" />
  </g>
</svg>
