<?xml version="1.0" encoding="UTF-8" standalone="no"?>
<svg
   xmlns:dc="http://purl.org/dc/elements/1.1/"
   xmlns:cc="http://creativecommons.org/ns#"
   xmlns:rdf="http://www.w3.org/1999/02/22-rdf-syntax-ns#"
   xmlns:svg="http://www.w3.org/2000/svg"
   xmlns="http://www.w3.org/2000/svg"
   id="svg3833"
   version="1.1"
   viewBox="0 0 43.074963 134.36236"
   height="507.82617"
   width="162.80301">
  <defs
     id="defs3827" />
  <metadata
     id="metadata3830">
    <rdf:RDF>
      <cc:Work
         rdf:about="">
        <dc:format>image/svg+xml</dc:format>
        <dc:type
           rdf:resource="http://purl.org/dc/dcmitype/StillImage" />
        <dc:title></dc:title>
      </cc:Work>
    </rdf:RDF>
  </metadata>
  <g
     transform="translate(-45.681642,56.948236)"
     id="layer1">
    <path
       id="path3777"
       d="M 52.919734,77.414104 52.847979,22.725176 C 52.825754,5.7758044 52.76834,5.5173404 52.246317,5.3516564 c -0.820473,-0.260403 -3.55428,-2.909946 -4.461907,-4.324342 -0.448522,-0.69895503 -1.079262,-1.97559103 -1.401657,-2.836971 -0.570018,-1.522947 -0.588724,-1.917634 -0.678629,-14.3106564 -0.06112,-8.423072 0.0027,-13.097164 0.187563,-13.784517 0.390313,-1.449514 1.281694,-2.680938 2.622973,-3.623635 1.052989,-0.740069 1.318498,-0.803582 3.359176,-0.803582 h 2.215806 l 0.463709,-1.028306 c 0.91903,-2.03803 3.155236,-3.584363 5.200439,-3.596092 0.9652,-0.0055 1.005919,-0.04027 0.859605,-0.733415 -0.558483,-2.645746 -2.005119,-10.87029 -2.005119,-11.399758 0,-2.016903 1.643751,-4.496186 3.557112,-5.365266 0.655902,-0.297921 1.694815,-0.489675 2.672291,-0.493228 1.340088,-0.0049 1.831261,0.133522 3.031226,0.854086 2.190908,1.315595 2.577438,2.282668 3.965971,9.922123 0.641431,3.529018 1.243781,6.326987 1.338528,6.217709 0.09477,-0.109279 0.915221,-2.877593 1.823244,-6.151812 1.852216,-6.678951 2.255123,-7.741465 3.350366,-8.835263 1.707409,-1.705176 4.674261,-2.244841 6.866652,-1.249031 2.026205,0.920324 3.579257,3.383028 3.542294,5.617075 -0.0082,0.49244 -1.237588,5.177784 -2.732114,10.41188 l -2.717323,9.516534 1.210786,0.571378 c 0.665903,0.314256 1.592659,0.973352 2.059411,1.464659 1.612953,1.697789 1.66489,2.117678 1.66489,13.456172 0,5.8650344 -0.115517,10.8585234 -0.27006,11.6734004 -0.602059,3.17463797 -2.837286,6.57084 -5.379217,8.173196 l -1.469046,0.926042 -0.0127,14.0188256 -3.981477,0.0058 c 0,-3.589043 0.107897,-15.6917306 0.292391,-16.0966246 0.166344,-0.365136 0.852409,-0.904015 1.59184,-1.250339 1.725242,-0.808056 3.476598,-2.57676403 4.386765,-4.430189 l 0.740463,-1.507881 0.0772,-10.7541484 0.07723,-10.754149 -0.649235,-0.755226 -0.649234,-0.755227 -6.968596,-0.08108 c -3.832754,-0.04459 -7.356052,-0.0093 -7.829551,0.07833 -1.083707,0.200655 -1.917197,1.076844 -1.917197,2.015374 0,2.140884 0.640159,2.353 7.101312,2.353 6.905122,0 6.49896,-0.287636 6.597438,4.672367 0.08935,4.500327 -0.02249,4.78295 -2.179161,5.51107 -2.940394,0.992663 -5.434172,4.0890954 -5.434172,6.7473724 0,1.132147 -0.501571,2.043565 -1.308577,2.377839 -0.866616,0.358958 -1.969875,0.0076 -2.379503,-0.757756 -0.611578,-1.142762 -0.133952,-4.081622 1.035004,-6.3682674 0.873178,-1.708094 3.303429,-4.136054 4.942761,-4.938098 l 1.414489,-0.692047 v -1.270013 -1.270011 l -4.576419,-0.088 c -4.366128,-0.08396 -4.639416,-0.120722 -5.947595,-0.800068 l -1.371177,-0.712068 -1.244441,0.695531 c -1.740218,0.972624 -3.992933,0.973839 -5.729791,0.0031 l -1.238911,-0.692453 -1.12448,0.613108 c -1.446635,0.788755 -2.778363,1.014061 -4.159567,0.703728 l -1.102413,-0.247695 0.08438,7.45045 0.08438,7.4504494 0.761868,1.649495 c 0.880269,1.90581197 2.7618,3.813402 4.534958,4.597752 0.64815,0.286705 1.299078,0.746707 1.44653,1.022228 0.173488,0.324173 0.268103,6.8134916 0.268103,18.3897396 V 77.409651 Z M 53.420273,-23.07332 c 0.37375,-0.373766 0.534961,-1.010126 0.629655,-2.485866 0.155258,-2.419056 -0.06866,-3.742574 -0.748082,-4.421995 -0.663655,-0.663672 -2.117805,-0.668175 -2.932483,-0.0091 -0.57277,0.46337 -0.632116,0.737677 -0.714746,3.303664 l -0.09014,2.798334 0.828331,0.828331 c 0.699823,0.699813 0.959961,0.802005 1.676718,0.658654 0.466619,-0.09332 1.074446,-0.39574 1.350751,-0.672044 z m 8.296857,-0.170942 c 0.571421,-0.639519 0.595313,-0.860629 0.595313,-5.510609 0,-4.500272 -0.03895,-4.893871 -0.548375,-5.541495 -0.405422,-0.515426 -0.789279,-0.69714 -1.472592,-0.69714 -1.317651,0 -1.885183,0.393391 -2.199322,1.524469 -0.377296,1.358572 -0.327078,8.431133 0.06802,9.581134 0.572479,1.666179 2.355056,1.988746 3.556952,0.643641 z m 8.797396,-7.825949 c 0,-1.104919 -3.732953,-20.645303 -4.037039,-21.132255 -0.730541,-1.169771 -2.563759,-1.123958 -3.467602,0.08666 l -0.540915,0.724477 1.386814,7.569684 c 0.762741,4.163325 1.581917,7.942133 1.82036,8.397348 0.253365,0.483698 0.48125,1.707328 0.548349,2.944334 l 0.114802,2.116667 2.087616,-0.08629 c 1.889469,-0.0781 2.087615,-0.137009 2.087615,-0.620621 z m 8.741067,-0.02069 c 0.412036,-0.932535 5.546434,-19.222048 5.546434,-19.757271 0,-0.262975 -0.246777,-0.791851 -0.548375,-1.175277 -0.725885,-0.922827 -2.278989,-0.974119 -3.083296,-0.101827 -0.376846,0.408733 -1.46931,3.842535 -3.4857,10.956189 -1.615228,5.698482 -2.936796,10.431217 -2.936796,10.517188 0,0.08597 0.955067,0.156311 2.122329,0.156311 1.946619,0 2.144131,-0.04929 2.385404,-0.595313 z M 77.12911,77.409649 V 19.288186 h 3.96875 v 58.121463 z"
       style="fill:#000000;stroke-width:0.26458332" />
  </g>
</svg>
